<?xml version="1.0" standalone="no"?>
<!DOCTYPE svg PUBLIC "-//W3C//DTD SVG 20010904//EN"
 "http://www.w3.org/TR/2001/REC-SVG-20010904/DTD/svg10.dtd">
<svg version="1.0" xmlns="http://www.w3.org/2000/svg"
 width="700.000000pt" height="700.000000pt" viewBox="0 0 700.000000 700.000000"
 preserveAspectRatio="xMidYMid meet">
<metadata>
Created by potrace 1.11, written by Peter Selinger 2001-2013
</metadata>
<g transform="translate(0.000000,700.000000) scale(0.100000,-0.100000)"
fill="#000000" stroke="none">
<path d="M882 6984 c-381 -64 -704 -340 -826 -705 -59 -175 -56 -36 -56 -2779
0 -2208 2 -2527 15 -2609 74 -453 423 -802 876 -876 82 -13 401 -15 2609 -15
2208 0 2527 2 2609 15 453 74 802 423 876 876 13 82 15 401 15 2609 0 2208 -2
2527 -15 2609 -74 453 -423 802 -876 876 -83 13 -399 15 -2619 14 -2109 -1
-2539 -3 -2608 -15z m2870 -1994 c475 -30 927 -253 1250 -614 274 -308 420
-657 447 -1071 17 -249 -16 -527 -80 -681 -62 -148 -275 -327 -422 -355 -57
-10 -289 7 -403 30 -73 15 -110 29 -177 69 -183 108 -530 350 -540 376 -3 7
79 99 182 206 193 202 275 301 379 457 136 204 221 412 209 515 -19 160 -168
252 -487 304 -134 22 -615 31 -785 14 -325 -31 -569 -106 -646 -199 -59 -72
-61 -151 -9 -311 75 -229 256 -482 585 -818 l160 -164 -25 -20 c-136 -110
-473 -331 -585 -384 -125 -59 -434 -93 -545 -61 -118 35 -280 159 -356 275
-41 61 -73 157 -101 305 -14 71 -18 145 -17 327 0 251 8 319 60 505 173 611
690 1099 1336 1260 93 23 196 35 383 43 17 1 101 -3 187 -8z m3 -2516 c288
-213 544 -369 798 -486 81 -37 157 -74 169 -82 57 -40 74 -113 37 -160 -52
-66 -363 -246 -534 -309 -220 -82 -376 -111 -585 -111 -368 0 -701 107 -1047
337 l-133 88 0 49 c0 27 5 59 11 72 11 24 88 75 149 98 59 23 320 155 405 205
109 65 349 227 470 319 55 41 107 76 115 76 9 0 74 -43 145 -96z"/>
</g>
</svg>
